<svg xmlns="http://www.w3.org/2000/svg" viewBox="0 0 434.84 360"><defs><style>.cls-1{fill:#0b3d91;}.cls-2{fill:#fff;}.cls-3{fill:#fc3d21;}</style></defs><g id="Layer_2" data-name="Layer 2"><g id="Layer_1-2" data-name="Layer 1"><path class="cls-1" d="M381.52,180c0,98.73-81.26,180-180,180s-180-81.27-180-180S102.79,0,201.52,0,381.52,81.26,381.52,180Z"/><path class="cls-2" d="M204,16.35a1.47,1.47,0,1,1-1.46-1.46A1.47,1.47,0,0,1,204,16.35Z"/><path class="cls-2" d="M214.16,38.57a1.81,1.81,0,1,1-1.81-1.8A1.81,1.81,0,0,1,214.16,38.57Z"/><path class="cls-2" d="M240.55,74.89a1.81,1.81,0,1,1-1.81-1.81A1.82,1.82,0,0,1,240.55,74.89Z"/><path class="cls-2" d="M198.14,51.09a1.47,1.47,0,1,1-1.46-1.47A1.47,1.47,0,0,1,198.14,51.09Z"/><path class="cls-2" d="M213.93,59.44A1.47,1.47,0,1,1,212.46,58,1.47,1.47,0,0,1,213.93,59.44Z"/><path class="cls-2" d="M193.4,36.09a1.8,1.8,0,1,1-1.8-1.81A1.81,1.81,0,0,1,193.4,36.09Z"/><path class="cls-2" d="M169.5,50.64A1.47,1.47,0,1,1,168,49.17,1.48,1.48,0,0,1,169.5,50.64Z"/><path class="cls-2" d="M173.78,53.57a1.47,1.47,0,1,1-1.47-1.47A1.48,1.48,0,0,1,173.78,53.57Z"/><path class="cls-2" d="M178.07,56.5A1.47,1.47,0,1,1,176.6,55,1.48,1.48,0,0,1,178.07,56.5Z"/><path class="cls-2" d="M171.52,62.14a1.47,1.47,0,1,1-1.46-1.46A1.48,1.48,0,0,1,171.52,62.14Z"/><path class="cls-2" d="M137.46,86.05A1.47,1.47,0,1,1,136,84.59,1.47,1.47,0,0,1,137.46,86.05Z"/><path class="cls-2" d="M143.78,93.72a1.47,1.47,0,1,1-1.46-1.47A1.48,1.48,0,0,1,143.78,93.72Z"/><path class="cls-2" d="M138.82,217.55a1.47,1.47,0,1,1-1.47-1.46A1.47,1.47,0,0,1,138.82,217.55Z"/><path class="cls-2" d="M139.72,251.73a1.81,1.81,0,1,1-1.8-1.81A1.81,1.81,0,0,1,139.72,251.73Z"/><path class="cls-2" d="M120.32,269.21a1.47,1.47,0,1,1-1.46-1.47A1.47,1.47,0,0,1,120.32,269.21Z"/><path class="cls-2" d="M97.09,276.32a1.81,1.81,0,1,1-1.81-1.81A1.82,1.82,0,0,1,97.09,276.32Z"/><path class="cls-2" d="M92.35,260.53a1.81,1.81,0,1,1-1.8-1.81A1.81,1.81,0,0,1,92.35,260.53Z"/><path class="cls-2" d="M89.64,270.56a1.47,1.47,0,1,1-1.46-1.46A1.47,1.47,0,0,1,89.64,270.56Z"/><path class="cls-2" d="M72.28,262.22a1.47,1.47,0,1,1-1.47-1.47A1.48,1.48,0,0,1,72.28,262.22Z"/><ellipse class="cls-2" cx="131.49" cy="290.41" rx="1.46" ry="1.47"/><circle class="cls-2" cx="149.42" cy="276.99" r="1.8"/><path class="cls-2" d="M153.25,294.25a1.47,1.47,0,1,1-1.46-1.47A1.47,1.47,0,0,1,153.25,294.25Z"/><path class="cls-2" d="M228.37,277.78a1.48,1.48,0,0,1-1.47,1.47,1.47,1.47,0,1,1,1.47-1.47Z"/><path class="cls-2" d="M193.4,290.19a1.47,1.47,0,1,1-1.46-1.46A1.46,1.46,0,0,1,193.4,290.19Z"/><path class="cls-2" d="M287.46,308a1.47,1.47,0,1,1-1.46-1.47A1.48,1.48,0,0,1,287.46,308Z"/><circle class="cls-2" cx="293.33" cy="238.65" r="1.8"/><path class="cls-2" d="M280.7,248.46a1.47,1.47,0,1,1-1.47-1.47A1.48,1.48,0,0,1,280.7,248.46Z"/><path class="cls-2" d="M294.91,251.28a1.81,1.81,0,1,1-1.81-1.8A1.82,1.82,0,0,1,294.91,251.28Z"/><path class="cls-2" d="M280.7,268.76a1.47,1.47,0,1,1-1.47-1.46A1.48,1.48,0,0,1,280.7,268.76Z"/><path class="cls-2" d="M317.46,228.84a1.47,1.47,0,1,1-1.46-1.47A1.47,1.47,0,0,1,317.46,228.84Z"/><path class="cls-2" d="M321.07,237.75a1.81,1.81,0,1,1-1.8-1.81A1.81,1.81,0,0,1,321.07,237.75Z"/><circle class="cls-2" cx="344.53" cy="248.34" r="1.8"/><circle class="cls-2" cx="319.16" cy="267.18" r="1.47"/><path class="cls-2" d="M336.87,251.84a1.47,1.47,0,1,1-1.47-1.47A1.49,1.49,0,0,1,336.87,251.84Z"/><path class="cls-2" d="M333.93,275.53a1.47,1.47,0,1,1-1.46-1.47A1.47,1.47,0,0,1,333.93,275.53Z"/><path class="cls-2" d="M235.6,34.39a2.58,2.58,0,0,1,1.92-1.84l.52-3.86.76,3.9a2.56,2.56,0,0,1,1.8,1.92l3.92.56-4,.69a2.59,2.59,0,0,1-1.87,1.81l-.66,4-.67-4a2.57,2.57,0,0,1-1.78-1.86l-3.78-.61Z"/><path class="cls-2" d="M134.47,311.09a2.58,2.58,0,0,1,1.92-1.84l.52-3.86.75,3.9a2.55,2.55,0,0,1,1.81,1.92l3.91.56-3.94.69a2.59,2.59,0,0,1-1.87,1.81l-.66,4-.67-4a2.56,2.56,0,0,1-1.78-1.86l-3.78-.6Z"/><path class="cls-2" d="M320.45,275.41a2.57,2.57,0,0,1,1.92-1.83l.52-3.86.76,3.89a2.58,2.58,0,0,1,1.8,1.92l3.92.56-3.95.69a2.59,2.59,0,0,1-1.87,1.81l-.66,4-.67-4a2.59,2.59,0,0,1-1.78-1.86l-3.77-.61Z"/><path class="cls-2" d="M335.18,235.63a2.57,2.57,0,0,1,1.92-1.84l.51-3.86.76,3.9a2.59,2.59,0,0,1,1.81,1.92l3.91.55-3.95.7a2.53,2.53,0,0,1-1.86,1.8l-.67,4-.67-4a2.59,2.59,0,0,1-1.78-1.86l-3.77-.62Z"/><path class="cls-2" d="M152.52,88.68a2.58,2.58,0,0,1,1.92-1.84L155,83l.76,3.9a2.58,2.58,0,0,1,1.81,1.92l3.91.56-4,.69a2.58,2.58,0,0,1-1.86,1.81l-.67,4-.67-4A2.59,2.59,0,0,1,152.5,90l-3.77-.61Z"/><path class="cls-2" d="M140.59,172.43c13.3,23.23,28.79,40.24,41.28,56.39,11.08,14.34,32.67,21.52,25.07,28.32-8.57,7.67-29.33-26.16-29.33-26.16a411.42,411.42,0,0,1-40.45-57.36Z"/><path class="cls-3" d="M0,233.4C64.25,191.2,176.38,164,268.74,127.29c70.17-27.86,132.56-62.83,166.1-111C349.84,189.45,113.12,169,4.62,235Z"/><path class="cls-2" d="M171.28,188.38,162,164.78l-6.83,23.6Zm-21.91-40.84h32.18l23.07,58.1,7.69,7.72H170.42l7.69-7.72-2.74-7.09H152.26l-2.38,8.11,5.51,6.7H133.54l7.69-7.72,14.82-51.38Z"/><path class="cls-2" d="M322,188.38l-9.31-23.6-6.83,23.6Zm-23.13-40.84h33.4l23.07,58.1,7.69,7.72h-41.9l7.7-7.72-2.73-7.09H303l-2.38,8.11,5.51,6.7H284.25l7.69-7.72,14.82-51.38Z"/><path class="cls-2" d="M105.71,188.53V154.26L99,147.54h22.26l-6.68,6.72v51.38l7.69,7.72H93.06L67.87,170.73v34.91l6.47,7.72H51.07l7.69-7.72V154.26l-6.68-6.72H81.22Z"/><path class="cls-2" d="M274.26,164.42l-.68-20.49-6.9,4.76c-9.72-3.4-21-3.27-29,.49-7.39,3.49-15.36,10.87-14.39,21.36s9.1,14.55,16.43,17.87c9.43,4.27,19.68,5.71,19.54,11.36-.1,3.59-6.07,6.17-10.7,6-4.23-.13-18-1.17-25.17-9.71l1.36,21.55,7.68-5.63c9.33,3.3,20.63,4.69,31.09,1.27s21.33-12.08,15.27-27.29c-2.61-6.55-9.8-10.58-14.09-12.33-3.93-1.61-15.9-6.32-19.25-8.06-3.9-2-3.47-8.5,5.93-9.81C259.94,154.59,271.73,161.41,274.26,164.42Z"/><path class="cls-3" d="M49.75,334.44c129-131.7,321.37-192.55,385.09-318.13C396.47,138.41,191,205.75,49.41,340.62Z"/><path class="cls-2" d="M137.16,173.62c-1.51-2.59-3-5.24-4.54-8-34.4-61.88-29.44-125,32.81-97.52C218.28,91.48,268.74,157,289,203.52c9.4,21.56,34.62,106.18-46.58,71.89l-.16-.5c76.69,31.58,63.43-48.44,22.39-109.8-23.24-34.72-53.53-63.63-72.64-77.59-63.61-46.47-102.41-18-57.74,73.08,2,4.13,4.12,8.06,6.28,11.83Z"/></g></g></svg>